<?xml version="1.0" encoding="UTF-8" standalone="no"?>
<!DOCTYPE svg PUBLIC "-//W3C//DTD SVG 1.1//EN" "http://www.w3.org/Graphics/SVG/1.1/DTD/svg11.dtd">
<svg version="1.1" xmlns="http://www.w3.org/2000/svg" xmlns:xlink="http://www.w3.org/1999/xlink" preserveAspectRatio="xMidYMid meet" viewBox="-0.9999999999999973 -1.000000000000007 132 132.00000000000003" width="128" height="128"><defs><path d="M64 128C28.68 128 0 99.32 0 64C0 28.68 28.68 0 64 0C99.32 0 128 28.68 128 64C128 99.32 99.32 128 64 128Z" id="b1f7pAtffz"></path><path d="M100.62 30.22C100.62 30.22 97.22 6.39 73.38 6.39C52.95 6.39 46.14 23.41 46.14 33.62C46.14 50.64 56.36 50.64 56.36 60.86C56.36 64.26 52.95 67.67 42.74 67.67C25.72 67.67 18.91 50.64 18.91 50.64C18.91 50.64 8.69 57.46 8.69 74.48C8.69 94.91 22.31 115.33 52.95 115.33C54.66 115.33 68.27 115.33 69.98 115.33C80.19 115.33 100.62 101.71 100.62 84.69C100.62 67.67 90.41 67.67 90.41 60.86C90.41 54.05 93.81 50.64 93.81 50.64C92.45 49.28 87 47.24 87 43.84C87 37.03 93.81 40.43 100.62 30.22Z" id="b1yD0dhmbH"></path><path d="M100.62 30.22C100.62 30.22 97.22 6.39 73.38 6.39C52.95 6.39 46.14 23.41 46.14 33.62C46.14 50.64 56.36 50.64 56.36 60.86C56.36 64.26 52.95 67.67 42.74 67.67C25.72 67.67 18.91 50.64 18.91 50.64C18.91 50.64 8.69 57.46 8.69 74.48C8.69 94.91 22.31 115.33 52.95 115.33C54.66 115.33 68.27 115.33 69.98 115.33C80.19 115.33 100.62 101.71 100.62 84.69C100.62 67.67 90.41 67.67 90.41 60.86C90.41 54.05 93.81 50.64 93.81 50.64C92.45 49.28 87 47.24 87 43.84C87 37.03 93.81 40.43 100.62 30.22Z" id="a6Lx84l2E0"></path><path d="M87 43.84C87 47.24 93.81 50.64 93.81 50.64C100.62 50.64 117.64 40.43 117.64 37.03C117.64 33.62 114.24 33.62 110.84 33.62C104.02 33.62 102.66 30.9 100.62 30.22C93.81 40.43 87 37.03 87 43.84Z" id="b29sJm7t5r"></path><path d="M87 43.84C87 47.24 93.81 50.64 93.81 50.64C100.62 50.64 117.64 40.43 117.64 37.03C117.64 33.62 114.24 33.62 110.84 33.62C104.02 33.62 102.66 30.9 100.62 30.22C93.81 40.43 87 37.03 87 43.84Z" id="i1G6cDAlr"></path><path d="M87 26.81C87 28.7 88.53 30.22 90.41 30.22C92.28 30.22 93.81 28.7 93.81 26.81C93.81 24.93 92.28 23.41 90.41 23.41C88.53 23.41 87 24.93 87 26.81Z" id="a1Ugmv9BQu"></path><path d="M87 26.81C87 28.7 88.53 30.22 90.41 30.22C92.28 30.22 93.81 28.7 93.81 26.81C93.81 24.93 92.28 23.41 90.41 23.41C88.53 23.41 87 24.93 87 26.81Z" id="ba8obkjwZ"></path></defs><g><g><use xlink:href="#b1f7pAtffz" opacity="1" fill="#5b4cff" fill-opacity="1"></use><g><use xlink:href="#b1f7pAtffz" opacity="1" fill-opacity="0" stroke="#000000" stroke-width="1" stroke-opacity="0"></use></g></g><g><use xlink:href="#b1yD0dhmbH" opacity="1" fill="#ffcc66" fill-opacity="1"></use><g><use xlink:href="#b1yD0dhmbH" opacity="1" fill-opacity="0" stroke="#000000" stroke-width="1" stroke-opacity="0"></use></g></g><g><use xlink:href="#a6Lx84l2E0" opacity="1" fill="#000000" fill-opacity="0"></use><g><use xlink:href="#a6Lx84l2E0" opacity="1" fill-opacity="0" stroke="#000000" stroke-width="0" stroke-opacity="0"></use></g></g><g><use xlink:href="#b29sJm7t5r" opacity="1" fill="#ff8833" fill-opacity="1"></use><g><use xlink:href="#b29sJm7t5r" opacity="1" fill-opacity="0" stroke="#000000" stroke-width="1" stroke-opacity="0"></use></g></g><g><use xlink:href="#i1G6cDAlr" opacity="1" fill="#000000" fill-opacity="0"></use><g><use xlink:href="#i1G6cDAlr" opacity="1" fill-opacity="0" stroke="#000000" stroke-width="0" stroke-opacity="0"></use></g></g><g><use xlink:href="#a1Ugmv9BQu" opacity="1" fill="#666666" fill-opacity="1"></use><g><use xlink:href="#a1Ugmv9BQu" opacity="1" fill-opacity="0" stroke="#000000" stroke-width="1" stroke-opacity="0"></use></g></g><g><use xlink:href="#ba8obkjwZ" opacity="1" fill="#000000" fill-opacity="0"></use><g><use xlink:href="#ba8obkjwZ" opacity="1" fill-opacity="0" stroke="#000000" stroke-width="1" stroke-opacity="0"></use></g></g></g></svg>