<?xml version="1.0" encoding="UTF-8" standalone="no"?>
<!DOCTYPE svg PUBLIC "-//W3C//DTD SVG 1.1//EN" "http://www.w3.org/Graphics/SVG/1.1/DTD/svg11.dtd">
<svg version="1.1" xmlns="http://www.w3.org/2000/svg" xmlns:xlink="http://www.w3.org/1999/xlink" preserveAspectRatio="xMidYMid meet" viewBox="126.99857521342958 132.90557188178158 308.7695775588561 308.769577558856" width="300" height="300"><defs><path d="M432.77 286.29C432.77 370.39 364.49 438.68 280.38 438.68C196.28 438.68 128 370.39 128 286.29C128 202.19 196.28 133.91 280.38 133.91C364.49 133.91 432.77 202.19 432.77 286.29Z" id="e1P2BoZTss"></path><path d="M334.15 237.28C334.15 221.07 350.36 229.17 366.58 204.85C366.58 204.85 358.47 148.11 301.72 148.11C253.08 148.11 236.87 188.64 236.87 212.96C236.87 253.49 261.19 253.49 261.19 277.81C261.19 285.92 253.08 294.03 228.76 294.03C188.23 294.03 172.02 253.49 172.02 253.49C172.02 253.49 147.7 269.71 147.7 310.24C147.7 358.88 180.12 407.52 253.08 407.52C257.14 407.52 289.56 407.52 293.62 407.52C317.94 407.52 366.58 375.09 366.58 334.56C366.58 294.03 342.26 294.03 342.26 277.81C342.26 261.6 350.36 253.49 350.36 253.49C347.12 250.25 334.15 245.39 334.15 237.28Z" id="bhLixt2WN"></path><path d="M366.58 204.85C350.36 229.17 334.15 221.07 334.15 237.28C334.15 245.39 350.36 253.49 350.36 253.49C366.58 253.49 407.11 229.17 407.11 221.07C407.11 212.96 399 212.96 390.9 212.96C374.68 212.96 371.44 206.48 366.58 204.85Z" id="a1KI8Lmqk8"></path><path d="M342.26 188.64C337.78 188.64 334.15 192.27 334.15 196.75C334.15 201.23 337.78 204.85 342.26 204.85C346.73 204.85 350.36 201.23 350.36 196.75C350.36 192.27 346.73 188.64 342.26 188.64Z" id="b7MbQ4uZQe"></path></defs><g><g><use xlink:href="#e1P2BoZTss" opacity="1" fill="#5b4cff" fill-opacity="1"></use></g><g><use xlink:href="#bhLixt2WN" opacity="1" fill="#ffcc66" fill-opacity="1"></use><g><use xlink:href="#bhLixt2WN" opacity="1" fill-opacity="0" stroke="#000000" stroke-width="0" stroke-opacity="0"></use></g></g><g><use xlink:href="#a1KI8Lmqk8" opacity="1" fill="#ff8833" fill-opacity="1"></use><g><use xlink:href="#a1KI8Lmqk8" opacity="1" fill-opacity="0" stroke="#000000" stroke-width="0" stroke-opacity="0"></use></g></g><g><use xlink:href="#b7MbQ4uZQe" opacity="1" fill="#666666" fill-opacity="1"></use><g><use xlink:href="#b7MbQ4uZQe" opacity="1" fill-opacity="0" stroke="#000000" stroke-width="1" stroke-opacity="0"></use></g></g></g></svg>